<?xml version="1.0" standalone="no"?>
<!DOCTYPE svg PUBLIC "-//W3C//DTD SVG 20010904//EN"
 "http://www.w3.org/TR/2001/REC-SVG-20010904/DTD/svg10.dtd">
<svg version="1.0" xmlns="http://www.w3.org/2000/svg"
 width="1094.000000pt" height="1094.000000pt" viewBox="0 0 1094.000000 1094.000000"
 preserveAspectRatio="xMidYMid meet">
<metadata>
Created by potrace 1.14, written by Peter Selinger 2001-2017
</metadata>
<g transform="translate(0.000000,1094.000000) scale(0.100000,-0.100000)"
fill="#000000" stroke="none">
<path d="M6384 10125 c-4 -8 -13 -15 -21 -15 -8 0 -11 -4 -8 -10 3 -5 2 -10
-3 -10 -9 0 -92 -78 -92 -86 0 -5 -39 -44 -44 -44 -7 0 -341 -340 -344 -350
-2 -6 -7 -10 -12 -10 -4 0 -239 -232 -523 -515 l-515 -515 -113 115 c-63 63
-117 115 -120 115 -3 0 -6 -106 -7 -235 l0 -234 -1061 -1062 c-584 -584 -1061
-1065 -1061 -1068 -1 -3 -19 -19 -40 -36 -21 -16 -39 -34 -40 -38 0 -4 -12
-18 -27 -31 l-27 -24 1842 -1838 1841 -1839 2 -135 c1 -74 -1 -134 -5 -134
-12 2 -136 124 -136 133 0 4 -11 14 -25 21 -13 7 -27 21 -31 32 -3 10 -11 18
-17 18 -7 0 -21 14 -32 30 -11 16 -23 30 -26 30 -10 0 -69 60 -69 70 0 6 -6
10 -14 10 -8 0 -17 8 -21 18 -3 9 -23 31 -45 47 -21 17 -39 36 -40 43 0 6 -6
12 -12 12 -7 0 -22 14 -33 30 -11 16 -23 30 -27 30 -10 0 -68 61 -68 71 0 4
-9 11 -20 14 -11 3 -20 13 -20 21 0 8 -4 12 -10 9 -5 -3 -10 -2 -10 3 0 5 -50
58 -111 119 l-111 111 -46 -48 c-26 -27 -57 -59 -68 -72 -12 -12 -108 -108
-214 -213 -106 -104 -198 -199 -206 -210 -10 -16 -12 -197 -12 -897 1 -483 2
-878 3 -878 4 0 777 774 830 831 24 26 45 46 47 45 2 0 28 25 59 57 31 31 55
57 54 57 -1 0 45 49 104 108 58 60 109 107 113 105 3 -2 8 2 10 7 2 6 82 89
177 185 l174 175 100 -98 c54 -53 109 -108 122 -121 l24 -24 -1 242 c-1 133 2
245 6 249 5 4 509 511 1122 1126 l1114 1119 -390 391 c-214 215 -1041 1045
-1839 1844 l-1449 1452 -1 135 c0 74 2 135 4 135 2 0 201 -198 443 -440 l440
-440 275 274 274 274 1 886 c0 487 -2 886 -4 886 -3 0 -7 -7 -10 -15z m-1274
-3616 c154 -154 280 -286 280 -292 0 -6 2 -8 5 -5 7 6 155 -142 155 -154 0 -5
4 -7 9 -4 5 4 11 2 13 -4 2 -6 294 -302 650 -658 l648 -648 -344 -345 c-189
-190 -351 -350 -359 -358 -14 -11 -154 126 -1036 1006 -562 560 -1021 1021
-1021 1026 0 9 702 715 712 716 4 1 134 -125 288 -280z"/>
</g>
</svg>
